<svg viewBox="0 0 40 40" xmlns="http://www.w3.org/2000/svg" fill="none">
  <rect width="40" height="40" rx="10" fill="#db7706"/>
  <path d="M9 22c0-4.4 3.6-8 8-8h2c4.4 0 8 3.6 8 8v3c0 1.7-1.3 3-3 3h-2.5l-1.5 2-1.5-2H12c-1.7 0-3-1.3-3-3v-3z" fill="#fff"/>
  <rect x="14" y="22" width="3" height="5" rx="0.6" fill="#db7706"/>
  <rect x="18" y="22" width="3" height="5" rx="0.6" fill="#db7706"/>
  <circle cx="14.5" cy="18.5" r="1.3" fill="#100c08"/>
  <circle cx="22.5" cy="18.5" r="1.3" fill="#100c08"/>
  <ellipse cx="18.5" cy="20.5" rx="1.5" ry="1" fill="#100c08"/>
  <path d="M28 28l4 3-3 1 1 3-4-3z" fill="#2a231b"/>
</svg>
